<mxfile host="app.diagrams.net" agent="Mozilla/5.0 (Windows NT 10.0; Win64; x64) AppleWebKit/537.36 (KHTML, like Gecko) Chrome/131.0.0.0 Safari/537.36" version="25.0.3">
  <diagram name="หน้า-1" id="hTtlX5oeV_Fy9SGrC4f2">
    <mxGraphModel dx="1050" dy="530" grid="1" gridSize="10" guides="1" tooltips="1" connect="1" arrows="1" fold="1" page="1" pageScale="1" pageWidth="827" pageHeight="1169" math="0" shadow="0">
      <root>
        <mxCell id="0" />
        <mxCell id="1" parent="0" />
        <mxCell id="0iIgj0EEAGeGkGra39Ap-3" value="" style="edgeStyle=orthogonalEdgeStyle;rounded=0;orthogonalLoop=1;jettySize=auto;html=1;" edge="1" parent="1" source="0iIgj0EEAGeGkGra39Ap-1" target="0iIgj0EEAGeGkGra39Ap-2">
          <mxGeometry relative="1" as="geometry" />
        </mxCell>
        <mxCell id="0iIgj0EEAGeGkGra39Ap-1" value="Start" style="ellipse;whiteSpace=wrap;html=1;" vertex="1" parent="1">
          <mxGeometry x="354" y="10" width="120" height="80" as="geometry" />
        </mxCell>
        <mxCell id="0iIgj0EEAGeGkGra39Ap-5" value="" style="edgeStyle=orthogonalEdgeStyle;rounded=0;orthogonalLoop=1;jettySize=auto;html=1;" edge="1" parent="1" source="0iIgj0EEAGeGkGra39Ap-2" target="0iIgj0EEAGeGkGra39Ap-4">
          <mxGeometry relative="1" as="geometry" />
        </mxCell>
        <mxCell id="0iIgj0EEAGeGkGra39Ap-2" value="Read file" style="whiteSpace=wrap;html=1;" vertex="1" parent="1">
          <mxGeometry x="354" y="180" width="120" height="60" as="geometry" />
        </mxCell>
        <mxCell id="0iIgj0EEAGeGkGra39Ap-7" value="" style="edgeStyle=orthogonalEdgeStyle;rounded=0;orthogonalLoop=1;jettySize=auto;html=1;" edge="1" parent="1" source="0iIgj0EEAGeGkGra39Ap-4" target="0iIgj0EEAGeGkGra39Ap-6">
          <mxGeometry relative="1" as="geometry" />
        </mxCell>
        <mxCell id="0iIgj0EEAGeGkGra39Ap-4" value="Sum year / person amount" style="whiteSpace=wrap;html=1;" vertex="1" parent="1">
          <mxGeometry x="354" y="320" width="120" height="60" as="geometry" />
        </mxCell>
        <mxCell id="0iIgj0EEAGeGkGra39Ap-9" value="" style="edgeStyle=orthogonalEdgeStyle;rounded=0;orthogonalLoop=1;jettySize=auto;html=1;" edge="1" parent="1" source="0iIgj0EEAGeGkGra39Ap-6" target="0iIgj0EEAGeGkGra39Ap-8">
          <mxGeometry relative="1" as="geometry" />
        </mxCell>
        <mxCell id="0iIgj0EEAGeGkGra39Ap-6" value="Output Averange" style="shape=parallelogram;perimeter=parallelogramPerimeter;whiteSpace=wrap;html=1;fixedSize=1;" vertex="1" parent="1">
          <mxGeometry x="354" y="460" width="120" height="60" as="geometry" />
        </mxCell>
        <mxCell id="0iIgj0EEAGeGkGra39Ap-11" value="" style="edgeStyle=orthogonalEdgeStyle;rounded=0;orthogonalLoop=1;jettySize=auto;html=1;" edge="1" parent="1" source="0iIgj0EEAGeGkGra39Ap-8" target="0iIgj0EEAGeGkGra39Ap-10">
          <mxGeometry relative="1" as="geometry" />
        </mxCell>
        <mxCell id="0iIgj0EEAGeGkGra39Ap-8" value="Output most yearsold and saraly" style="shape=parallelogram;perimeter=parallelogramPerimeter;whiteSpace=wrap;html=1;fixedSize=1;" vertex="1" parent="1">
          <mxGeometry x="346" y="600" width="136" height="60" as="geometry" />
        </mxCell>
        <mxCell id="0iIgj0EEAGeGkGra39Ap-13" value="" style="edgeStyle=orthogonalEdgeStyle;rounded=0;orthogonalLoop=1;jettySize=auto;html=1;" edge="1" parent="1" source="0iIgj0EEAGeGkGra39Ap-10" target="0iIgj0EEAGeGkGra39Ap-12">
          <mxGeometry relative="1" as="geometry" />
        </mxCell>
        <mxCell id="0iIgj0EEAGeGkGra39Ap-10" value="&lt;span style=&quot;text-align: left;&quot;&gt;Output output second most yearsold and saraly&lt;/span&gt;" style="shape=parallelogram;perimeter=parallelogramPerimeter;whiteSpace=wrap;html=1;fixedSize=1;" vertex="1" parent="1">
          <mxGeometry x="331" y="740" width="166" height="60" as="geometry" />
        </mxCell>
        <mxCell id="0iIgj0EEAGeGkGra39Ap-15" value="" style="edgeStyle=orthogonalEdgeStyle;rounded=0;orthogonalLoop=1;jettySize=auto;html=1;" edge="1" parent="1" source="0iIgj0EEAGeGkGra39Ap-12" target="0iIgj0EEAGeGkGra39Ap-14">
          <mxGeometry relative="1" as="geometry" />
        </mxCell>
        <mxCell id="0iIgj0EEAGeGkGra39Ap-12" value="&lt;span style=&quot;text-align: left;&quot;&gt;Output output third most yearsold and saraly&lt;/span&gt;" style="shape=parallelogram;perimeter=parallelogramPerimeter;whiteSpace=wrap;html=1;fixedSize=1;" vertex="1" parent="1">
          <mxGeometry x="351" y="880" width="126" height="60" as="geometry" />
        </mxCell>
        <mxCell id="0iIgj0EEAGeGkGra39Ap-14" value="End" style="ellipse;whiteSpace=wrap;html=1;" vertex="1" parent="1">
          <mxGeometry x="354" y="1020" width="120" height="80" as="geometry" />
        </mxCell>
      </root>
    </mxGraphModel>
  </diagram>
</mxfile>
